<svg width="556" height="40" viewBox="0 0 556 40" fill="none" xmlns="http://www.w3.org/2000/svg">
<path d="M29.892 17.828C29.3867 18.3364 28.9997 18.95 28.7587 19.6249C28.5176 20.3 28.4284 21.0199 28.4973 21.7333L28.4733 21.7093C28.5443 22.5492 28.4309 23.3943 28.1415 24.1859C27.852 24.9773 27.3933 25.6961 26.7975 26.2921C26.2015 26.888 25.4827 27.3468 24.6911 27.6361C23.8996 27.9256 23.0544 28.0389 22.2147 27.968L22.2387 27.992C21.2341 27.8985 20.2252 28.1171 19.3493 28.618C18.4736 29.1189 17.7736 29.8777 17.3449 30.7911C16.9163 31.7044 16.7796 32.7276 16.9537 33.7215C17.128 34.7152 17.6044 35.6311 18.3181 36.3441C19.0319 37.0572 19.9481 37.5328 20.942 37.706C21.936 37.8793 22.9591 37.7417 23.872 37.3123C24.7849 36.8827 25.5431 36.1821 26.0432 35.3059C26.5433 34.4296 26.7611 33.4205 26.6667 32.416L26.692 32.44C26.6211 31.6003 26.7343 30.7551 27.0237 29.9635C27.3132 29.172 27.772 28.4532 28.3679 27.8572C28.9639 27.2613 29.6827 26.8025 30.4741 26.5132C31.2657 26.2237 32.1108 26.1104 32.9507 26.1813L32.9253 26.1573C33.7459 26.2311 34.5719 26.0965 35.3267 25.7661C36.0813 25.4357 36.7405 24.9201 37.2429 24.2672C37.7453 23.6143 38.0749 22.8449 38.2008 22.0308C38.3268 21.2165 38.2452 20.3837 37.9636 19.6093C37.682 18.8351 37.2095 18.1444 36.5899 17.6013C35.9703 17.0583 35.2236 16.6804 34.4191 16.5028C33.6145 16.3252 32.7781 16.3535 31.9875 16.5851C31.1968 16.8168 30.4775 17.2443 29.896 17.828H29.892Z" fill="black"/>
<path d="M20.056 24.8478L20.0307 24.8238C20.7444 24.8957 21.4652 24.8081 22.1411 24.5673C22.8168 24.3265 23.4307 23.9386 23.9381 23.4316C24.4455 22.9245 24.834 22.3109 25.0752 21.6353C25.3165 20.9597 25.4047 20.239 25.3333 19.5252L25.3587 19.5492C25.2877 18.7093 25.4011 17.8642 25.6904 17.0726C25.9799 16.2812 26.4387 15.5624 27.0345 14.9664C27.6305 14.3705 28.3493 13.9117 29.1408 13.6224C29.9324 13.3328 30.7775 13.2196 31.6173 13.2905L31.592 13.2665C32.5967 13.3609 33.6059 13.143 34.4821 12.6426C35.3585 12.1423 36.0591 11.3838 36.4884 10.4706C36.9177 9.55749 37.0549 8.53411 36.8813 7.5401C36.7077 6.54609 36.2317 5.62985 35.5181 4.91633C34.8047 4.20282 33.8884 3.72677 32.8944 3.55314C31.9004 3.3795 30.8771 3.51671 29.9639 3.94607C29.0507 4.37542 28.2923 5.07602 27.7919 5.9523C27.2915 6.82857 27.0736 7.83786 27.168 8.8425L27.144 8.81717C27.2151 9.65702 27.102 10.5023 26.8127 11.2939C26.5233 12.0855 26.0645 12.8044 25.4687 13.4005C24.8727 13.9964 24.1537 14.4552 23.3621 14.7445C22.5704 15.0338 21.7252 15.1469 20.8853 15.0758L20.9093 15.1012C20.1956 15.0293 19.4747 15.1169 18.7989 15.3577C18.1232 15.5984 17.5093 15.9864 17.0019 16.4934C16.4944 17.0005 16.106 17.6141 15.8647 18.2897C15.6235 18.9653 15.5353 19.686 15.6067 20.3998L15.5827 20.3758C15.6533 21.2156 15.5399 22.0606 15.2504 22.8521C14.9608 23.6434 14.5021 24.3622 13.9063 24.9581C13.3103 25.554 12.5916 26.0126 11.8002 26.3022C11.0088 26.5917 10.1637 26.7052 9.324 26.6345L9.348 26.6585C8.34336 26.5641 7.33407 26.782 6.45779 27.2824C5.58152 27.7828 4.88092 28.5412 4.45158 29.4544C4.02222 30.3676 3.88499 31.3909 4.05863 32.3849C4.23227 33.3789 4.70832 34.2952 5.42183 35.0086C6.13535 35.7222 7.05159 36.1982 8.0456 36.3718C9.03962 36.5454 10.063 36.4082 10.9761 35.9789C11.8893 35.5496 12.6478 34.849 13.1481 33.9728C13.6485 33.0964 13.8664 32.0872 13.772 31.0825L13.7973 31.1065C13.7264 30.2666 13.8397 29.4216 14.1292 28.63C14.4185 27.8385 14.8773 27.1197 15.4732 26.5237C16.0692 25.9278 16.788 25.469 17.5795 25.1797C18.3711 24.8902 19.2161 24.7769 20.056 24.8478Z" fill="#006B6A"/>
<path d="M11.12 22.1721C11.6254 21.6638 12.0123 21.0502 12.2531 20.3751C12.494 19.7001 12.5828 18.9801 12.5133 18.2667L12.5387 18.2907C12.4677 17.4507 12.581 16.6053 12.8706 15.8135C13.1602 15.0218 13.6192 14.3029 14.2155 13.7069C14.8117 13.1109 15.5308 12.6523 16.3227 12.363C17.1145 12.0737 17.96 11.9608 18.8 12.0321L18.7747 12.0081C19.7789 12.1022 20.7879 11.8842 21.6637 11.3839C22.5396 10.8836 23.2397 10.1253 23.6689 9.21239C24.098 8.29951 24.2351 7.27651 24.0615 6.28287C23.8879 5.28923 23.4119 4.37334 22.6987 3.66008C21.9855 2.94683 21.0695 2.47094 20.0759 2.29731C19.0823 2.12367 18.0592 2.26076 17.1464 2.68986C16.2335 3.11895 15.4752 3.81918 14.9749 4.69504C14.4745 5.57091 14.2565 6.57979 14.3507 7.58408L14.3267 7.56008C14.3976 8.39988 14.2843 9.24504 13.9948 10.0366C13.7053 10.8281 13.2467 11.5469 12.6507 12.1428C12.0548 12.7388 11.336 13.1975 10.5445 13.4869C9.75294 13.7763 8.9078 13.8897 8.068 13.8187L8.092 13.8427C7.27142 13.7691 6.44554 13.9039 5.6909 14.2345C4.93626 14.565 4.27726 15.0807 3.77498 15.7338C3.2727 16.3867 2.9434 17.1561 2.81756 17.9702C2.69173 18.7845 2.77345 19.6173 3.05514 20.3914C3.33684 21.1657 3.80941 21.8562 4.42905 22.3991C5.04869 22.9422 5.79536 23.3199 6.59986 23.4975C7.40436 23.675 8.24066 23.6466 9.03129 23.415C9.8219 23.1833 10.5412 22.7558 11.1227 22.1721H11.12Z" fill="black"/>
<path d="M52.4227 8.87354H56.3827V28.1442H52.4227V8.87354Z" fill="black"/>
<path d="M58.6253 21.5455C58.6198 20.1607 59.0254 18.8052 59.7908 17.6511C60.5561 16.4969 61.6468 15.5959 62.9246 15.0621C64.2025 14.5283 65.61 14.3857 66.9689 14.6525C68.3278 14.9193 69.577 15.5833 70.5582 16.5607C71.5394 17.5379 72.2085 18.7844 72.4808 20.1423C72.753 21.5001 72.6161 22.9083 72.0874 24.1883C71.5588 25.4681 70.6621 26.5625 69.511 27.3324C68.3598 28.1024 67.0062 28.5135 65.6213 28.5135C64.7021 28.524 63.79 28.3511 62.9382 28.0049C62.0865 27.6588 61.3124 27.1464 60.661 26.4977C60.0096 25.8489 59.4941 25.0768 59.1446 24.2265C58.795 23.3763 58.6185 22.4648 58.6253 21.5455ZM68.6573 21.5455C68.6408 20.9485 68.4486 20.3697 68.105 19.8813C67.7613 19.3931 67.2813 19.0168 66.725 18.7999C66.1686 18.5828 65.5608 18.5345 64.9772 18.6612C64.3936 18.7879 63.8602 19.0836 63.4438 19.5117C63.0276 19.9397 62.7465 20.4811 62.6362 21.068C62.5258 21.6548 62.5908 22.2612 62.8232 22.8113C63.0556 23.3615 63.4449 23.8308 63.9425 24.1608C64.4402 24.4908 65.0242 24.6668 65.6213 24.6668C66.0302 24.6777 66.437 24.6037 66.8161 24.4496C67.195 24.2955 67.538 24.0645 67.8232 23.7713C68.1084 23.478 68.3298 23.1288 68.4733 22.7457C68.6169 22.3627 68.6796 21.954 68.6573 21.5455Z" fill="black"/>
<path d="M88.4 14.9452V27.4786C88.4 31.9132 84.9413 33.7879 81.4306 33.7879C80.1946 33.8804 78.9569 33.6307 77.8533 33.0663C76.7498 32.5018 75.823 31.6443 75.1746 30.5879L78.5533 28.6346C78.8258 29.1852 79.2601 29.6395 79.7978 29.9367C80.3357 30.2338 80.9514 30.3596 81.5626 30.2972C81.9533 30.3514 82.3512 30.317 82.7268 30.1966C83.1022 30.0762 83.446 29.8728 83.7324 29.6018C84.0188 29.3306 84.2405 28.9986 84.3813 28.63C84.522 28.2616 84.578 27.8663 84.5453 27.4732V26.2666C84.0816 26.8339 83.4914 27.2847 82.822 27.5827C82.1525 27.8807 81.4226 28.0176 80.6906 27.9826C78.949 27.9276 77.2972 27.1972 76.0846 25.9458C74.8721 24.6944 74.1941 23.0203 74.1941 21.2779C74.1941 19.5355 74.8721 17.8614 76.0846 16.61C77.2972 15.3586 78.949 14.6282 80.6906 14.5732C81.4226 14.5382 82.1525 14.6751 82.822 14.9731C83.4914 15.2711 84.0816 15.7219 84.5453 16.2892V14.9426L88.4 14.9452ZM84.5466 21.2799C84.5733 20.6418 84.4082 20.0102 84.0729 19.4666C83.7376 18.9228 83.2472 18.492 82.6649 18.2295C82.0826 17.9668 81.4352 17.8846 80.8057 17.9931C80.1762 18.1016 79.5937 18.396 79.1329 18.8386C78.6722 19.281 78.3545 19.8511 78.2205 20.4756C78.0866 21.1002 78.1426 21.7506 78.3816 22.343C78.6204 22.9354 79.031 23.4428 79.5606 23.7999C80.0902 24.157 80.7146 24.3474 81.3533 24.3466C81.7694 24.3756 82.1869 24.3172 82.579 24.1751C82.9712 24.033 83.3292 23.8102 83.63 23.5214C83.9308 23.2324 84.1678 22.8838 84.3257 22.4976C84.4836 22.1116 84.5589 21.6968 84.5466 21.2799Z" fill="black"/>
<path d="M90.6426 21.5455C90.6372 20.1607 91.0426 18.8052 91.8081 17.6511C92.5734 16.4969 93.6641 15.5959 94.942 15.0621C96.2198 14.5283 97.6273 14.3857 98.9862 14.6525C100.345 14.9193 101.594 15.5833 102.576 16.5607C103.557 17.5379 104.226 18.7844 104.498 20.1423C104.77 21.5001 104.633 22.9083 104.105 24.1883C103.576 25.4681 102.679 26.5625 101.528 27.3324C100.377 28.1024 99.0236 28.5135 97.6386 28.5135C96.7194 28.524 95.8072 28.3511 94.9556 28.0049C94.1038 27.6588 93.3297 27.1464 92.6784 26.4977C92.0269 25.8489 91.5114 25.0768 91.162 24.2265C90.8124 23.3763 90.6358 22.4648 90.6426 21.5455ZM100.675 21.5455C100.658 20.9485 100.466 20.3697 100.122 19.8813C99.7786 19.3931 99.2986 19.0168 98.7424 18.7999C98.186 18.5828 97.578 18.5345 96.9945 18.6612C96.4109 18.7879 95.8776 19.0836 95.4612 19.5117C95.0449 19.9397 94.7638 20.4811 94.6534 21.068C94.543 21.6548 94.6081 22.2612 94.8405 22.8113C95.0729 23.3615 95.4622 23.8308 95.9598 24.1608C96.4576 24.4908 97.0414 24.6668 97.6386 24.6668C98.0476 24.6777 98.4544 24.6037 98.8333 24.4496C99.2124 24.2955 99.5553 24.0645 99.8405 23.7713C100.126 23.478 100.347 23.1288 100.491 22.7457C100.634 22.3627 100.697 21.954 100.675 21.5455Z" fill="black"/>
<path d="M106.481 11.4082C106.481 10.9383 106.621 10.4789 106.882 10.0882C107.143 9.69747 107.514 9.39292 107.948 9.2131C108.382 9.03326 108.86 8.9862 109.321 9.07788C109.782 9.16956 110.205 9.39586 110.537 9.72815C110.87 10.0604 111.096 10.4838 111.188 10.9447C111.279 11.4056 111.232 11.8833 111.053 12.3175C110.873 12.7516 110.568 13.1227 110.177 13.3838C109.787 13.6449 109.327 13.7842 108.857 13.7842C108.229 13.778 107.628 13.5257 107.184 13.0814C106.74 12.6372 106.488 12.0364 106.481 11.4082ZM106.881 14.9456H110.843V28.1456H106.876L106.881 14.9456Z" fill="black"/>
<path d="M127.941 21.5455C127.987 22.4179 127.86 23.2907 127.567 24.1138C127.275 24.9369 126.822 25.6939 126.236 26.3415C125.649 26.989 124.941 27.5143 124.151 27.8871C123.361 28.2598 122.505 28.4727 121.632 28.5135C120.898 28.5535 120.165 28.4298 119.485 28.1513C118.804 27.8726 118.195 27.4462 117.7 26.9029V33.4242H113.74V14.9455H117.7V16.1855C118.195 15.6426 118.805 15.2165 119.485 14.9382C120.165 14.6598 120.898 14.5362 121.632 14.5762C122.505 14.6169 123.361 14.8297 124.151 15.2025C124.941 15.5753 125.65 16.1006 126.237 16.7483C126.823 17.3961 127.275 18.1534 127.568 18.9767C127.861 19.7999 127.987 20.673 127.941 21.5455ZM123.981 21.5455C123.966 20.9278 123.769 20.3283 123.414 19.8221C123.059 19.3159 122.564 18.9255 121.988 18.6999C121.413 18.4742 120.784 18.4231 120.18 18.5533C119.576 18.6833 119.023 18.9886 118.592 19.431C118.161 19.8735 117.869 20.4333 117.754 21.0406C117.64 21.6478 117.706 22.2753 117.947 22.8447C118.187 23.4142 118.589 23.9001 119.104 24.2418C119.619 24.5834 120.223 24.7657 120.841 24.7655C121.266 24.7845 121.689 24.7134 122.084 24.5571C122.479 24.401 122.836 24.163 123.133 23.859C123.429 23.5549 123.658 23.1917 123.804 22.793C123.951 22.3943 124.011 21.9691 123.981 21.5455Z" fill="black"/>
<path d="M140.161 24.1841C140.161 27.2201 137.523 28.5135 134.672 28.5135C133.52 28.6177 132.364 28.3743 131.352 27.8141C130.34 27.2541 129.519 26.4035 128.996 25.3721L132.427 23.4188C132.565 23.8955 132.864 24.3103 133.271 24.5936C133.679 24.8771 134.172 25.0121 134.667 24.9761C135.616 24.9761 136.092 24.6855 136.092 24.1588C136.092 22.7055 129.597 23.4721 129.597 18.9055C129.597 16.0268 132.027 14.5761 134.772 14.5761C135.804 14.5435 136.825 14.7883 137.731 15.2849C138.636 15.7817 139.392 16.5121 139.919 17.4001L136.54 19.2215C136.392 18.8757 136.145 18.5812 135.831 18.3747C135.516 18.1681 135.148 18.0588 134.772 18.0601C134.085 18.0601 133.663 18.3268 133.663 18.7988C133.668 20.3041 140.161 19.3001 140.161 24.1841Z" fill="black"/>
<path d="M154.627 14.9453V28.1453H150.667V26.904C150.209 27.4517 149.629 27.8833 148.973 28.1633C148.317 28.4433 147.605 28.5637 146.893 28.5146C144.227 28.5146 141.96 26.6146 141.96 23.048V14.9453H145.92V22.468C145.887 22.7824 145.923 23.1002 146.025 23.3993C146.127 23.6985 146.293 23.9718 146.512 24.2002C146.731 24.4286 146.996 24.6066 147.291 24.722C147.584 24.8373 147.9 24.8872 148.216 24.868C149.668 24.868 150.671 24.024 150.671 22.1493V14.9493L154.627 14.9453Z" fill="black"/>
<path d="M177.333 20.04V28.144H173.373V20.3826C173.373 19.0626 172.74 18.2186 171.473 18.2186C170.153 18.2186 169.413 19.1426 169.413 20.7V28.144H165.455V20.3826C165.455 19.0626 164.821 18.2186 163.553 18.2186C162.233 18.2186 161.495 19.1426 161.495 20.7V28.144H157.535V14.944H161.495V16.1573C161.905 15.619 162.444 15.1921 163.061 14.9157C163.68 14.6392 164.357 14.522 165.032 14.5746C165.709 14.5414 166.384 14.6845 166.991 14.9897C167.596 15.2948 168.112 15.7518 168.489 16.316C168.928 15.7257 169.509 15.2564 170.179 14.9518C170.848 14.6473 171.584 14.5176 172.317 14.5746C175.348 14.576 177.333 16.74 177.333 20.04Z" fill="black"/>
<path d="M180.683 14.8642C182.305 14.8642 183.621 13.5484 183.621 11.9255C183.621 10.3025 182.305 8.98682 180.683 8.98682C179.06 8.98682 177.744 10.3025 177.744 11.9255C177.744 13.5484 179.06 14.8642 180.683 14.8642Z" fill="black"/>
</svg>
